<?xml version="1.0" encoding="utf-8"?>
<!-- Generator: Adobe Illustrator 25.4.1, SVG Export Plug-In . SVG Version: 6.00 Build 0)  -->
<svg version="1.1" id="shield-break" xmlns="http://www.w3.org/2000/svg" xmlns:xlink="http://www.w3.org/1999/xlink" x="0px"
	 y="0px" viewBox="0 0 266.5 62.2" style="enable-background:new 0 0 266.5 62.2;" xml:space="preserve">
<style type="text/css">
	.st0{fill:#FFFFFF;}
</style>
<g>
	<g>
		<path class="st0" d="M161.7,11.5l5,2v-3h-5V11.5z"/>
		<polygon class="st0" points="266.5,25.1 265.6,24.2 265.6,24.2 247,5 161.7,5 161.7,6 242.4,6 261,25.1 		"/>
	</g>
	<g>
		<path class="st0" d="M104.7,10.5h-5v3l5-2V10.5z"/>
		<polygon class="st0" points="0,25.1 0.9,24.2 0.9,24.2 19.5,5 104.7,5 104.7,6 24.1,6 5.5,25.1 		"/>
	</g>
	<polygon class="st0" points="133.1,62.2 127.5,59.1 109.5,59.1 109.3,59 89.5,41.6 20.6,41.6 20.6,40.6 89.8,40.6 90,40.7 
		109.8,58.1 127.8,58.1 133.1,61 133.1,61 138.5,58.1 156.4,58.1 176.3,40.7 176.4,40.6 245.6,40.6 245.6,41.6 176.8,41.6 157,59 
		156.8,59.1 138.8,59.1 133.1,62.2 	"/>
	<g id="shield">
		<path class="st0" d="M112.8,5l-0.1-0.5l-0.4,0.1V5H112.8z M132.3,0.5V0h-0.1L132.3,0.5z M132.3,48.7l-0.3,0.4l0.1,0.1h0.1V48.7z
			 M153.7,5h0.5V4.6l-0.4-0.1L153.7,5z M134.2,0.5l0.1-0.5h-0.1V0.5z M134.2,48.7v0.5h0.2l0.1-0.1L134.2,48.7z M112.9,5.4L132.4,1
			l-0.2-1l-19.5,4.5L112.9,5.4z M132.3,1h1V0h-1V1z M133.3,48.2h-1v1h1V48.2z M132.5,48.3c-4.2-2.7-8.3-5.7-12.1-8.9
			c-1.8-1.5-3.6-3.2-5.1-5c-0.6-0.7-1.1-1.4-1.5-2.1c-0.3-0.5-0.5-1-0.5-1.6h-1c0,0.7,0.3,1.5,0.6,2.1c0.5,0.8,1,1.6,1.6,2.3
			c1.6,1.8,3.4,3.5,5.2,5.1c3.9,3.2,8,6.2,12.2,9L132.5,48.3z M113.3,30.7V5h-1v25.7H113.3z M153.8,4.5L134.4,0l-0.2,1l19.5,4.4
			L153.8,4.5z M134.2,0h-1v1h1V0z M133.2,49.2h1v-1h-1V49.2z M134.5,49.1c4.3-2.8,8.3-5.8,12.2-9c1.9-1.5,3.6-3.2,5.2-5.1
			c0.6-0.7,1.2-1.5,1.6-2.3c0.4-0.6,0.6-1.4,0.6-2.1h-1c0,0.6-0.2,1.1-0.5,1.6c-0.4,0.8-0.9,1.5-1.5,2.1c-1.6,1.8-3.3,3.4-5.1,5
			c-3.9,3.2-7.9,6.2-12.1,8.9L134.5,49.1z M154.2,30.7V5h-1v25.7H154.2z"/>
		<path class="st0" d="M140.2,15.8l-2.5,5.7l-3.3,7.5c-0.3,0.7-0.6,1.4-0.7,2.1c-0.1,0.3-0.2,0.5-0.5,0.5c-0.3,0-0.6-0.1-0.6-0.4
			c-1.9-4.9-4.3-9.7-6.4-14.5l-0.1-0.1c-0.2,0-0.2,0.1-0.2,0.2c-0.2,4-0.6,7.9-0.6,11.9c0,0.2,0,0.4,0,0.5c0.1,1.4,0.3,1.7,1.8,1.8
			c0.4,0,0.6,0.2,0.6,0.6s-0.4,0.4-0.6,0.4c-1.8-0.1-3.6-0.1-5.4,0c-0.3,0-0.6,0.1-0.6-0.4s0.1-0.5,0.5-0.6c1.4-0.1,1.8-0.4,1.9-1.8
			c0.4-3.3,0.5-6.6,0.8-9.9c0.1-1.4,0.2-2.8,0.3-4.1s-0.2-1.8-1.7-2c-0.3,0-0.6-0.1-0.6-0.5s0.1-0.5,0.4-0.4c1.4,0.1,2.9,0.1,4.3,0
			c0.2,0,0.4,0.1,0.5,0.3c0,0,0,0,0,0c1.1,3.3,2.5,6.6,4,9.7c0.7,1.6,1.4,3.1,2.2,4.9c0.1-0.2,0.1-0.3,0.2-0.4
			c1.9-4.2,3.9-8.4,5.6-12.7c0.1-0.3,0.2-0.6,0.3-0.9c0.3-0.9,0.3-1,1.3-0.9c1.2,0.1,2.3,0.1,3.5,0c0.3,0,0.6-0.1,0.6,0.4
			s-0.1,0.5-0.5,0.6c-1.5,0.2-1.8,0.6-1.8,2.1c0.2,4.7,0.4,9.5,0.8,14.2c0.1,1.1,0.4,1.4,1.6,1.5c0.4,0,0.6,0.1,0.6,0.5
			s-0.3,0.4-0.6,0.4c-2-0.1-4.1-0.1-6.1,0c-0.3,0-0.6,0-0.6-0.4s0.2-0.5,0.6-0.5c1.6,0,2-0.4,2-2c-0.2-4.3-0.4-8.5-0.6-12.8
			c0-0.1,0-0.1,0-0.2C140.4,15.9,140.3,15.8,140.2,15.8z"/>
	</g>
</g>
</svg>
