<svg id="Layer_1" data-name="Layer 1" xmlns="http://www.w3.org/2000/svg" viewBox="0 0 120.45 123.08"><polygon points="34.69 4.35 49.69 4.35 45.34 0 29.68 0 34.69 4.35" style="fill:#fff"/><polygon points="13.69 4.35 28.69 4.35 24.34 0 8.68 0 13.69 4.35" style="fill:#fff"/><path d="M120.45,123.08V72.5a.48.48,0,0,0-.26-.43l-18-10.32V23.91L62.19,0H53.37V4.35h8.82L97.19,25V58.88l-6.38-3.69v-25a.5.5,0,0,0-.25-.43L57.9,10.07a.59.59,0,0,0-.26-.07H.5a.5.5,0,0,0,0,1h57L89.81,30.5v25a.48.48,0,0,0,.25.43l8.33,4.79,3.8,2.28v-.1l17.22,9.89v50.29Z" style="fill:#fff"/></svg>