<svg id="Layer_1" data-name="Layer 1" xmlns="http://www.w3.org/2000/svg" viewBox="0 0 120.45 123.08"><polygon points="85.76 118.73 70.76 118.73 75.11 123.08 90.77 123.08 85.76 118.73" style="fill:#fff"/><polygon points="106.76 118.73 91.76 118.73 96.11 123.08 111.77 123.08 106.76 118.73" style="fill:#fff"/><path d="M0,0V50.58A.48.48,0,0,0,.26,51l18,10.32V99.17l40,23.91h8.82v-4.35H58.26l-35-20.65V64.2l6.38,3.69v25a.5.5,0,0,0,.25.43L62.55,113a.59.59,0,0,0,.26.07H120a.5.5,0,0,0,0-1H63L30.64,92.58v-25a.48.48,0,0,0-.25-.43l-8.33-4.79-3.8-2.28v.1L1,50.29V0Z" style="fill:#fff"/></svg>