<svg id="Layer_1" data-name="Layer 1" xmlns="http://www.w3.org/2000/svg" viewBox="0 0 120.45 123.08"><polygon points="90.77 0 75.11 0 70.76 4.35 85.76 4.35 90.77 0" style="fill:#fff"/><polygon points="111.77 0 96.11 0 91.76 4.35 106.76 4.35 111.77 0" style="fill:#fff"/><path d="M1,123.08V72.79L18.26,62.9V63l3.8-2.28,8.33-4.79a.48.48,0,0,0,.25-.43v-25L63,11h57a.5.5,0,0,0,0-1H62.81a.59.59,0,0,0-.26.07L29.89,29.76a.5.5,0,0,0-.25.43v25l-6.38,3.69V25l35-20.65h8.82V0H58.26l-40,23.91V61.75L.26,72.07A.48.48,0,0,0,0,72.5v50.58Z" style="fill:#fff"/></svg>