<svg id="Layer_1" data-name="Layer 1" xmlns="http://www.w3.org/2000/svg" viewBox="0 0 120.45 123.08"><polygon points="29.68 123.08 45.34 123.08 49.69 118.73 34.69 118.73 29.68 123.08" style="fill:#fff"/><polygon points="8.68 123.08 24.34 123.08 28.69 118.73 13.69 118.73 8.68 123.08" style="fill:#fff"/><path d="M119.41,0V50.29l-17.22,9.89v-.1l-3.8,2.28-8.33,4.79a.48.48,0,0,0-.25.43v25L57.5,112.08H.5a.5.5,0,0,0,0,1H57.64a.59.59,0,0,0,.26-.07L90.56,93.32a.5.5,0,0,0,.25-.43v-25l6.38-3.69V98.08l-35,20.65H53.37v4.35h8.82l40-23.91V61.33l18-10.32a.48.48,0,0,0,.26-.43V0Z" style="fill:#fff"/></svg>