<svg id="Layer_1" data-name="Layer 1" xmlns="http://www.w3.org/2000/svg" viewBox="0 0 179.49 179.49"><g style="opacity:0.25"><path d="M89.74,8.16a81.59,81.59,0,1,0,81.59,81.58A81.59,81.59,0,0,0,89.74,8.16Zm25.72,61.12h18.25v5H115.46ZM48.88,74.44H30.62v-5H48.88Zm10.86.34a3,3,0,1,1,3-3A3,3,0,0,1,59.74,74.78ZM113.9,158h-48v-5h48Zm29.81-74.13H125.46v-5h18.25Z" style="fill:#fff"/></g><g style="opacity:0.75"><path d="M89.74,3A86.75,86.75,0,1,1,3,89.74,86.84,86.84,0,0,1,89.74,3m0-3a89.75,89.75,0,1,0,89.75,89.74A89.74,89.74,0,0,0,89.74,0Z" style="fill:#fff"/></g><polygon points="89.4 104.71 88.81 117.33 118.43 102.67 118.51 102.57 108.62 96.45 74.18 96.45 64.28 102.57 75.93 115.85 89.4 104.71" style="fill:#fff"/><circle cx="101.75" cy="119.64" r="3.45" style="fill:#fff"/><circle cx="90.25" cy="126.54" r="3.45" style="fill:#fff"/><polygon points="90.13 28.49 90.13 40.29 97.26 28.49 90.13 28.49" style="fill:#fff"/><path d="M73,56.39v6.9h9.2v13.6L96,85.24H82.2v1.05h18.4v-23h9.2v-6.9ZM95.7,77.82h-4V63.29h4Z" style="fill:#fff"/><polygon points="100.6 47.19 82.2 47.19 77.6 28.79 105.2 28.79 100.6 47.19" style="fill:none;stroke:#fff;stroke-miterlimit:10;stroke-width:4px"/><polygon points="82.67 137.47 50.19 100.47 71.56 87.25 111.23 87.25 132.6 100.47 100.12 137.47 82.67 137.47" style="fill:none;stroke:#fff;stroke-miterlimit:10;stroke-width:4px"/><line x1="75.74" y1="147.48" x2="103.74" y2="147.48" style="fill:none;stroke:#fff;stroke-miterlimit:10;stroke-width:4px"/></svg>