<svg id="Layer_1" data-name="Layer 1" xmlns="http://www.w3.org/2000/svg" viewBox="0 0 223.54 213.63"><polygon points="211.44 88.4 223.54 98.86 213.07 110.97 211.44 88.4" style="fill:#fff"/><polygon points="177.82 184.12 174.69 199.81 159 196.68 177.82 184.12" style="fill:#fff"/><polygon points="77.61 202.38 62.48 207.57 57.29 192.44 77.61 202.38" style="fill:#fff"/><polygon points="12.16 125.05 0 114.66 10.4 102.49 12.16 125.05" style="fill:#fff"/><polygon points="45.99 29.33 49.06 13.63 64.76 16.7 45.99 29.33" style="fill:#fff"/><polygon points="165.77 20.91 160.57 5.78 145.44 10.98 165.77 20.91" style="fill:#fff"/><g style="opacity:0.75"><path d="M90.83,5.39l98.24,32.69,20.81,101.43-77.44,68.73L34.2,175.55,13.39,74.12,90.83,5.39M90.13,2l-80,71L31.61,177.85l101.53,33.79,80-71L191.66,35.78,90.13,2Z" style="fill:#fff"/></g><g style="opacity:0.75"><path d="M117.79,3.46l86.43,57-6.15,103.35-92.59,46.35-86.43-57L25.2,49.81,117.79,3.46M118,0,22.31,47.9,16,154.71l89.32,58.92L201,165.73l6.36-106.82L118,0Z" style="fill:#fff"/></g><path d="M112.32,84.19,89.69,106.81l22.63,22.63,22.62-22.63Zm12.79,25.17a18.62,18.62,0,0,1-25.6,0l-2.1-2.11a.46.46,0,0,1,0-.67l2.1-2.11a18.1,18.1,0,0,1,25.6,0l2.12,2.1a.5.5,0,0,1,0,.68Z" style="fill:#fff"/><path d="M112.35,101.15a5.72,5.72,0,1,0,5.72,5.71A5.71,5.71,0,0,0,112.35,101.15Z" style="fill:#fff"/><line x1="102.27" y1="83.27" x2="102.27" y2="63.27" style="fill:none;stroke:#fff;stroke-miterlimit:10;stroke-width:4px"/><line x1="92.27" y1="93.27" x2="92.27" y2="71.27" style="fill:none;stroke:#fff;stroke-miterlimit:10;stroke-width:4px"/><line x1="82.27" y1="101.27" x2="82.27" y2="79.27" style="fill:none;stroke:#fff;stroke-miterlimit:10;stroke-width:4px"/><line x1="112.27" y1="77.27" x2="112.27" y2="57.27" style="fill:none;stroke:#fff;stroke-miterlimit:10;stroke-width:4px"/><line x1="122.27" y1="83.27" x2="122.27" y2="63.27" style="fill:none;stroke:#fff;stroke-miterlimit:10;stroke-width:4px"/><line x1="132.27" y1="93.27" x2="132.27" y2="71.27" style="fill:none;stroke:#fff;stroke-miterlimit:10;stroke-width:4px"/><line x1="142.27" y1="101.27" x2="142.27" y2="79.27" style="fill:none;stroke:#fff;stroke-miterlimit:10;stroke-width:4px"/><line x1="102.27" y1="130.36" x2="102.27" y2="150.36" style="fill:none;stroke:#fff;stroke-miterlimit:10;stroke-width:4px"/><line x1="92.27" y1="120.36" x2="92.27" y2="142.36" style="fill:none;stroke:#fff;stroke-miterlimit:10;stroke-width:4px"/><line x1="82.27" y1="112.36" x2="82.27" y2="134.36" style="fill:none;stroke:#fff;stroke-miterlimit:10;stroke-width:4px"/><line x1="112.27" y1="136.36" x2="112.27" y2="156.36" style="fill:none;stroke:#fff;stroke-miterlimit:10;stroke-width:4px"/><line x1="122.27" y1="130.36" x2="122.27" y2="150.36" style="fill:none;stroke:#fff;stroke-miterlimit:10;stroke-width:4px"/><line x1="132.27" y1="120.36" x2="132.27" y2="142.36" style="fill:none;stroke:#fff;stroke-miterlimit:10;stroke-width:4px"/><line x1="142.27" y1="112.36" x2="142.27" y2="134.36" style="fill:none;stroke:#fff;stroke-miterlimit:10;stroke-width:4px"/><g style="opacity:0.25"><polygon points="68.77 128.02 68.77 93.13 55.3 110.57 68.77 128.02" style="fill:#fff"/></g><g style="opacity:0.25"><path d="M112.35,101.15a5.72,5.72,0,1,0,5.72,5.71A5.71,5.71,0,0,0,112.35,101.15Z" style="fill:#fff"/></g><g style="opacity:0.25"><path d="M111.77,25.23a81.59,81.59,0,1,0,81.58,81.58A81.59,81.59,0,0,0,111.77,25.23Zm-39,114.51L50.24,110.57,72.77,81.41Zm54.46-32.49-2.12,2.11a18.62,18.62,0,0,1-25.6,0l-2.1-2.11a.46.46,0,0,1,0-.67l2.1-2.11a18.1,18.1,0,0,1,25.6,0l2.12,2.1A.5.5,0,0,1,127.23,107.25Zm23.54,32.49V81.41l22.53,29.16Z" style="fill:#fff"/></g><g style="opacity:0.25"><polygon points="154.77 93.13 154.77 128.02 168.24 110.57 154.77 93.13" style="fill:#fff"/></g></svg>