<svg id="Layer_1" data-name="Layer 1" xmlns="http://www.w3.org/2000/svg" viewBox="0 0 89.74 89.74"><g style="opacity:0.25"><circle cx="44.8" cy="44.87" r="40.79" style="fill:#fff"/></g><polygon points="61.03 25.97 44.98 30.07 28.93 25.97 14.37 40.52 44.96 71.43 44.96 71.48 44.98 71.45 45.01 71.48 45.01 71.43 75.6 40.52 61.03 25.97" style="fill:#606060"/><polyline points="83.29 45.57 72.35 45.57 63.85 37.07 63.85 53.9 54.65 63.1 54.65 27.31 44.89 17.55 44.89 60.73 44.89 66.15 44.89 72.88 35.13 63.13 35.13 27.33 25.93 36.53 25.93 53.37 17.43 44.86 6.49 44.86" style="fill:none;stroke:#fff;stroke-miterlimit:10;stroke-width:2px"/><g style="opacity:0.75"><path d="M44.87,1.5A43.37,43.37,0,1,1,1.5,44.87,43.42,43.42,0,0,1,44.87,1.5m0-1.5A44.87,44.87,0,1,0,89.74,44.87,44.87,44.87,0,0,0,44.87,0Z" style="fill:#fff"/></g></svg>