<svg id="Layer_1" data-name="Layer 1" xmlns="http://www.w3.org/2000/svg" viewBox="0 0 89.74 89.74"><g style="opacity:0.25"><circle cx="44.87" cy="44.87" r="40.79" style="fill:#fff"/></g><g style="opacity:0.75"><path d="M44.87,1.5A43.37,43.37,0,1,1,1.5,44.87,43.42,43.42,0,0,1,44.87,1.5m0-1.5A44.87,44.87,0,1,0,89.74,44.87,44.87,44.87,0,0,0,44.87,0Z" style="fill:#fff"/></g><polygon points="53.92 72.47 35.82 72.47 35.82 58.35 37.82 58.35 37.82 70.47 51.92 70.47 51.92 43.87 60.2 43.87 63.2 45.87 53.92 45.87 53.92 72.47" style="fill:#fff"/><polygon points="37.82 45.87 26.55 45.87 29.55 43.87 35.82 43.87 35.82 17.27 53.92 17.27 53.92 31.4 51.92 31.4 51.92 19.27 37.82 19.27 37.82 45.87" style="fill:#fff"/><polygon points="45.87 63.2 43.87 60.2 43.87 53.92 17.27 53.92 17.27 35.82 31.4 35.82 31.4 37.82 19.27 37.82 19.27 51.92 45.87 51.92 45.87 63.2" style="fill:#fff"/><polygon points="72.47 53.92 58.35 53.92 58.35 51.92 70.47 51.92 70.47 37.82 43.87 37.82 43.87 29.55 45.87 26.55 45.87 35.82 72.47 35.82 72.47 53.92" style="fill:#fff"/><line x1="22.5" y1="59.92" x2="31.63" y2="59.92" style="fill:none;stroke:#606060;stroke-linejoin:round;stroke-width:2.5px"/><line x1="17.5" y1="64.92" x2="31.63" y2="64.92" style="fill:none;stroke:#606060;stroke-linejoin:round;stroke-width:2.5px"/><line x1="65.29" y1="29.08" x2="74.42" y2="29.08" style="fill:none;stroke:#606060;stroke-linejoin:round;stroke-width:2.5px"/><circle cx="59.86" cy="29.16" r="1.5" style="fill:#606060"/></svg>