<svg id="Layer_1" data-name="Layer 1" xmlns="http://www.w3.org/2000/svg" xmlns:xlink="http://www.w3.org/1999/xlink" viewBox="0 0 111.77 106.81"><defs><clipPath id="clip-path"><path d="M54.62,17.26V39.9l-6-6-1.23-1.23V43L37.07,32.63V22.85l7,6.09V20.7l6.38,5.6v-9Zm2.74,0V39.9l6-6,1.23-1.23V43L74.91,32.63V22.85L68,28.94V20.7l-6.39,5.6v-9Z" style="fill:none"/></clipPath><clipPath id="clip-path-2"><path d="M19.69,54.61H42.33l-6,6L35.1,61.84H45.38L35.06,72.16H25.28l6.09-7H23.12l5.6-6.38h-9Zm0-2.75H42.33l-6-6L35.1,44.63H45.38L35.06,34.31H25.28l6.09,6.95H23.12l5.6,6.38h-9Z" style="fill:none"/></clipPath><clipPath id="clip-path-3"><path d="M57,89.55V66.91l6,6,1.23,1.23V63.86L74.56,74.18V84l-6.94-6.09v8.25l-6.39-5.6v9Zm-2.74,0V66.91l-6,6L47,74.14V63.86L36.72,74.18V84l7-6.09v8.25l6.38-5.6v9Z" style="fill:none"/></clipPath><clipPath id="clip-path-4"><path d="M92,52.21H69.3l6-6L76.53,45H66.25L76.57,34.66h9.79l-6.1,6.94h8.25L82.91,48h9ZM92,55H69.3l6,6,1.23,1.23H66.25L76.57,72.5h9.79l-6.1-7h8.25l-5.6-6.38h9Z" style="fill:none"/></clipPath></defs><g style="opacity:0.25"><circle cx="55.82" cy="53.41" r="40.79" style="fill:#fff"/></g><polygon points="70.72 47.78 61.45 47.78 61.45 38.5 50.2 38.5 50.2 47.78 40.93 47.78 40.93 59.02 50.2 59.02 50.2 68.3 61.45 68.3 61.45 59.02 70.72 59.02 70.72 47.78" style="fill:#f8f8f8"/><g style="clip-path:url(#clip-path)"><path d="M69.24,23.75,56.09,36.15,42.87,23.71m-6.95,2.55L51.56,41l4.54,4.26L60.63,41l15.59-14.7m-27-5.61,6.83,6.41,6.5-6.12" style="fill:none;stroke:#606060;stroke-miterlimit:10;stroke-width:2.5px"/></g><g style="clip-path:url(#clip-path-2)"><path d="M26.18,40,38.57,53.14,26.14,66.36m2.54,7L43.39,57.67l4.27-4.54L43.39,48.6,28.69,33M23.07,60l6.42-6.82-6.13-6.5" style="fill:none;stroke:#606060;stroke-miterlimit:10;stroke-width:2.5px"/></g><g style="clip-path:url(#clip-path-3)"><path d="M42.39,83.06,55.54,70.67,68.77,83.1m7-2.54L60.07,65.85l-4.53-4.27L51,65.85,35.41,80.55m27,5.62-6.82-6.42-6.5,6.13" style="fill:none;stroke:#606060;stroke-miterlimit:10;stroke-width:2.5px"/></g><g style="clip-path:url(#clip-path-4)"><path d="M85.45,66.83,73.06,53.68,85.5,40.45M83,33.5,68.24,49.15,64,53.68l4.27,4.54L82.94,73.81m5.62-27-6.41,6.82,6.12,6.5" style="fill:none;stroke:#606060;stroke-miterlimit:10;stroke-width:2.5px"/></g><polygon points="105.72 44.2 111.77 49.43 106.54 55.48 105.72 44.2" style="fill:#fff"/><polygon points="88.91 92.06 87.34 99.91 79.5 98.34 88.91 92.06" style="fill:#fff"/><polygon points="38.81 101.19 31.24 103.79 28.64 96.22 38.81 101.19" style="fill:#fff"/><polygon points="6.08 62.53 0 57.33 5.2 51.25 6.08 62.53" style="fill:#fff"/><polygon points="22.99 14.67 24.53 6.82 32.38 8.35 22.99 14.67" style="fill:#fff"/><polygon points="82.89 10.46 80.28 2.89 72.72 5.49 82.89 10.46" style="fill:#fff"/><g style="opacity:0.75"><path d="M45.41,2.69,94.53,19l10.41,50.71L66.22,104.12,17.1,87.77,6.7,37.06,45.41,2.69M45.07,1l-40,35.51L15.8,88.92l50.77,16.9,40-35.52L95.83,17.89,45.07,1Z" style="fill:#fff"/></g><g style="opacity:0.75"><path d="M58.89,1.73l43.22,28.5L99,81.91,52.74,105.09,9.52,76.58,12.6,24.9,58.89,1.73M59,0,11.15,24,8,77.36l44.67,29.45,47.84-24,3.18-53.4L59,0Z" style="fill:#fff"/></g><path d="M48.43,53.29l1-1a9,9,0,0,1,12.8,0l1.06,1a.24.24,0,0,1,0,.33l-1.06,1.06a9.31,9.31,0,0,1-12.8,0l-1-1.06A.24.24,0,0,1,48.43,53.29Z" style="fill:#888"/><circle cx="55.9" cy="53.43" r="2.86" style="fill:#f8f8f8"/></svg>