<svg id="Layer_1" data-name="Layer 1" xmlns="http://www.w3.org/2000/svg" xmlns:xlink="http://www.w3.org/1999/xlink" viewBox="0 0 89.74 89.74"><defs><clipPath id="clip-path"><polygon points="59.42 25.83 59.42 37.83 58.4 38.06 57.17 39.1 56.17 40.76 33.57 40.76 30.32 35.36 30.32 25.83 16.63 25.83 16.63 73.83 73.63 73.83 73.63 24.83 59.63 24.83 59.42 25.83" style="fill:none"/></clipPath><clipPath id="clip-path-2"><rect x="33.63" y="7.83" width="23" height="6" style="fill:none"/></clipPath></defs><g style="opacity:0.25"><circle cx="44.87" cy="44.87" r="40.79" style="fill:#fff"/></g><g style="opacity:0.75"><path d="M44.87,1.5A43.37,43.37,0,1,1,1.5,44.87,43.42,43.42,0,0,1,44.87,1.5m0-1.5A44.87,44.87,0,1,0,89.74,44.87,44.87,44.87,0,0,0,44.87,0Z" style="fill:#fff"/></g><polygon points="55.42 34.25 55.42 22.06 44.87 15.97 34.32 22.06 34.32 34.25 44.87 51.78 55.42 34.25" style="fill:none;stroke:#fff;stroke-miterlimit:10;stroke-width:2px"/><polygon points="49.05 30.73 49.05 25.92 44.89 23.52 40.72 25.92 40.72 30.73 44.89 33.14 49.05 30.73" style="fill:#fff"/><polygon points="55.17 69.53 57.17 69.53 57.17 39.1 55.17 42.42 55.17 69.53" style="fill:#606060"/><polygon points="32.57 59.32 34.57 59.32 34.57 42.42 32.57 39.1 32.57 59.32" style="fill:#606060"/><g style="clip-path:url(#clip-path)"><polygon points="56.17 37.21 33.57 28.22 18.51 37.21 18.51 69.53 33.57 59.32 56.17 69.53 71.24 59.32 71.24 28.22 56.17 37.21" style="fill:none;stroke:#606060;stroke-width:2.5px"/></g><g style="clip-path:url(#clip-path-2)"><polyline points="55.42 16.06 44.87 9.97 34.32 16.06" style="fill:none;stroke:#fff;stroke-miterlimit:10;stroke-width:2px"/></g><polygon points="19.76 51.01 17.86 52.13 19.15 54.28 19.76 53.92 25.71 50.37 25.71 47.45 19.76 51.01" style="fill:#606060"/><polygon points="57.42 51.01 56.06 51.82 54.92 51.37 50.78 49.72 50.78 52.41 54.92 54.06 56.28 54.6 57.42 53.92 62.8 50.71 62.8 47.8 57.42 51.01" style="fill:#606060"/></svg>