<svg id="clear-bloods" xmlns="http://www.w3.org/2000/svg" viewBox="0 0 179.49 179.49"><g style="opacity:0.75"><path d="M89.74,3A86.75,86.75,0,1,1,3,89.74,86.84,86.84,0,0,1,89.74,3m0-3a89.75,89.75,0,1,0,89.75,89.74A89.74,89.74,0,0,0,89.74,0Z" style="fill:#fff"/></g><g style="opacity:0.25"><path d="M89.74,8.16a81.59,81.59,0,1,0,81.59,81.58A81.59,81.59,0,0,0,89.74,8.16ZM38.94,66.89a3,3,0,1,1,3,3A3,3,0,0,1,38.94,66.89ZM89.7,148.7,40.26,116.06l19.2-77.37H89.7Zm56.24-52.81a3,3,0,1,1,3-3A3,3,0,0,1,145.94,95.89Z" style="fill:#fff"/></g><polygon points="139.14 116.06 89.7 148.7 40.26 116.06 59.46 38.69 119.94 38.69 139.14 116.06" style="fill:none;stroke:#fff;stroke-miterlimit:10;stroke-width:4px"/><polygon points="89.19 98.89 74.35 106.7 64.97 98.89 64.97 87.95 64.97 80.14 73.56 68.42 89.19 68.42 104.81 68.42 113.41 80.14 113.41 87.95 113.41 98.89 104.03 106.7 89.19 98.89" style="fill:none;stroke:#fefefe;stroke-miterlimit:10;stroke-width:3.9062500000000004px"/><polygon points="72.47 87.88 72.39 88.03 72.39 92.25 103.12 108.42 104.94 104.97 72.47 87.88" style="fill:#fefefe"/><polygon points="105.99 88.03 105.91 87.88 73.44 104.97 75.25 108.42 105.99 92.25 105.99 88.03" style="fill:#fefefe"/><polyline points="94.35 118.72 94.35 111.01 89.19 112.95 84.03 111.01 84.03 118.72" style="fill:none;stroke:#fefefe;stroke-miterlimit:10;stroke-width:3.9062500000000004px"/><line x1="74.35" y1="106.7" x2="74.35" y2="118.55" style="fill:none;stroke:#fefefe;stroke-miterlimit:10;stroke-width:3.9062500000000004px"/><line x1="104.03" y1="106.7" x2="104.03" y2="118.55" style="fill:none;stroke:#fefefe;stroke-miterlimit:10;stroke-width:3.9062500000000004px"/><polygon points="74.35 39.6 89.7 51.37 104.03 39.6 74.35 39.6" style="fill:#fefefe"/><circle cx="35.08" cy="54.86" r="9.33" style="fill:#fff"/><polyline points="139.14 128.06 89.7 160.7 40.26 128.06" style="fill:none;stroke:#fff;stroke-miterlimit:10;stroke-width:4px"/></svg>