<svg id="Layer_1" data-name="Layer 1" xmlns="http://www.w3.org/2000/svg" viewBox="0 0 179.49 179.49"><g style="opacity:0.75"><path d="M89.74,3A86.75,86.75,0,1,1,3,89.74,86.84,86.84,0,0,1,89.74,3m0-3a89.75,89.75,0,1,0,89.75,89.74A89.74,89.74,0,0,0,89.74,0Z" style="fill:#fff"/></g><path d="M143.64,78.08l-50.4-49.2L37.8,82.4l10.8,38.88s74.16,18,74.16,19.44S143.64,78.08,143.64,78.08Z" style="fill:none;stroke:#fff;stroke-miterlimit:10;stroke-width:4px"/><polyline points="93.24 29.12 68.76 96.08 48.6 121.28" style="fill:none;stroke:#fff;stroke-miterlimit:10;stroke-width:4px"/><polyline points="68.76 96.08 102.37 100.76 143.64 78.08" style="fill:none;stroke:#fff;stroke-miterlimit:10;stroke-width:4px"/><line x1="102.37" y1="100.76" x2="122.76" y2="140.72" style="fill:none;stroke:#fff;stroke-miterlimit:10;stroke-width:4px"/><polygon points="66.26 21.52 69.86 38.32 52.76 48.22 48.56 38.92 66.26 21.52" style="fill:#fff"/><polygon points="40.46 48.22 44.96 53.62 44.96 58 34.76 58 38.66 51.22 40.46 48.22" style="fill:#fff"/><g style="opacity:0.25"><path d="M89.74,8.16a81.59,81.59,0,1,0,81.59,81.58A81.59,81.59,0,0,0,89.74,8.16Zm33,114.43h-2.44l-2-4H124C123.56,120,123.12,121.31,122.69,122.59Zm2.66-8h-9.19l-2-4h12.55Zm2.64-8H112.08l-1.72-3.37,1.14-.63h17.8Zm2.63-8H118.78l7.27-4h5.88C131.49,95.93,131.06,97.26,130.62,98.59Zm7.38-43L127.37,45.19l1.21-11.1,3.39-.54,17.15,22Z" style="fill:#fff"/></g></svg>