<svg id="Layer_1" data-name="Layer 1" xmlns="http://www.w3.org/2000/svg" viewBox="0 0 223.54 213.63"><polygon points="211.44 88.4 223.54 98.86 213.07 110.97 211.44 88.4" style="fill:#fff"/><polygon points="177.82 184.12 174.69 199.81 159 196.68 177.82 184.12" style="fill:#fff"/><polygon points="77.61 202.38 62.48 207.57 57.29 192.44 77.61 202.38" style="fill:#fff"/><polygon points="12.16 125.05 0 114.66 10.4 102.49 12.16 125.05" style="fill:#fff"/><polygon points="45.99 29.33 49.06 13.63 64.76 16.7 45.99 29.33" style="fill:#fff"/><polygon points="165.77 20.91 160.57 5.78 145.44 10.98 165.77 20.91" style="fill:#fff"/><g style="opacity:0.75"><path d="M90.83,5.39l98.24,32.69,20.81,101.43-77.44,68.73L34.2,175.55,13.39,74.12,90.83,5.39M90.13,2l-80,71L31.61,177.85l101.53,33.79,80-71L191.66,35.78,90.13,2Z" style="fill:#fff"/></g><g style="opacity:0.75"><path d="M117.79,3.46l86.43,57-6.15,103.35-92.59,46.35-86.43-57L25.2,49.81,117.79,3.46M118,0,22.31,47.9,16,154.71l89.32,58.92L201,165.73l6.36-106.82L118,0Z" style="fill:#fff"/></g><g style="opacity:0.25"><polygon points="145.95 133.01 151.33 133.01 166.34 107.01 160.96 107.01 145.95 133.01" style="fill:#fff"/></g><g style="opacity:0.25"><polygon points="72.21 133.01 77.59 133.01 62.58 107.01 57.2 107.01 72.21 133.01" style="fill:#fff"/></g><g style="opacity:0.25"><path d="M111.77,25.23a81.59,81.59,0,1,0,81.58,81.58A81.59,81.59,0,0,0,111.77,25.23ZM81.82,59.66v4H60.5l-2.31-4ZM82.21,141l-2.31-4H74.52l5.77,10H75.67L44.5,93h4.62l5.77,10h5.38l-3.46-6h4.62l25.4,44Zm59.51-81.35h23.62l-2.3,4H141.72ZM147.86,147h-4.61L149,137h-5.38l-2.31,4h-4.62l25.4-44h4.62l-3.46,6h5.38l5.77-10H179Z" style="fill:#fff"/></g><path d="M126.68,129.1l-2.11-2.1A18.11,18.11,0,0,0,99,127l-2.1,2.1a.46.46,0,0,0,0,.67l2.1,2.12a18.64,18.64,0,0,0,25.61,0l2.11-2.12A.48.48,0,0,0,126.68,129.1Zm-14.87,6a5.72,5.72,0,1,1,5.71-5.72A5.73,5.73,0,0,1,111.81,135.11Z" style="fill:#fff"/><polyline points="81.77 71.66 56.52 71.66 111.77 167.36 167.02 71.66 141.77 71.66" style="fill:none;stroke:#fff;stroke-miterlimit:10;stroke-width:4px"/><line x1="72.53" y1="99.01" x2="138.41" y2="121.21" style="fill:none;stroke:#fff;stroke-miterlimit:10;stroke-width:4px"/><line x1="150.53" y1="99.01" x2="85.76" y2="121.21" style="fill:none;stroke:#fff;stroke-miterlimit:10;stroke-width:4px"/><circle cx="115.36" cy="68.63" r="7.47" style="fill:#fff"/><circle cx="129.36" cy="76.63" r="4.67" style="fill:#fff"/><path d="M118.88,91.24a18.24,18.24,0,1,1,15-28.55,22.09,22.09,0,1,0,0,20.63A18.21,18.21,0,0,1,118.88,91.24Z" style="fill:#fff"/><line x1="111.53" y1="112.01" x2="164.53" y2="73.01" style="fill:none;stroke:#fff;stroke-miterlimit:10;stroke-width:3px"/><line x1="112.53" y1="112.01" x2="59.53" y2="73.01" style="fill:none;stroke:#fff;stroke-miterlimit:10;stroke-width:3px"/></svg>