<svg id="Layer_1" data-name="Layer 1" xmlns="http://www.w3.org/2000/svg" viewBox="0 0 89.74 89.74"><g style="opacity:0.25"><circle cx="44.8" cy="44.87" r="40.79" style="fill:#fff"/></g><g style="opacity:0.75"><path d="M44.87,1.5A43.37,43.37,0,1,1,1.5,44.87,43.42,43.42,0,0,1,44.87,1.5m0-1.5A44.87,44.87,0,1,0,89.74,44.87,44.87,44.87,0,0,0,44.87,0Z" style="fill:#fff"/></g><circle cx="39.14" cy="33.23" r="1.5" style="fill:#606060"/><path d="M33.7,34.56H24.58v-2.5H33.7ZM35.22,30H20a4.3,4.3,0,0,1,0-8.59v2.5a1.8,1.8,0,0,0,0,3.59H35.22Zm3.92,4.73a1.5,1.5,0,1,1,1.5-1.5A1.5,1.5,0,0,1,39.14,34.73ZM67.9,39v-2.5H80V39Z" style="fill:#606060"/><circle cx="61.29" cy="15.76" r="4.67" style="fill:#fff"/><polygon points="17.29 55.87 39.07 55.87 28.18 39.57 17.29 55.87" style="fill:none;stroke:#fff;stroke-miterlimit:10;stroke-width:2px"/><polygon points="73.23 55.87 62.34 39.57 51.45 55.87 73.23 55.87" style="fill:none;stroke:#fff;stroke-miterlimit:10;stroke-width:2px"/><polyline points="36.02 26.32 45.26 14.02 51.45 23.27 55.46 29.28 38.43 54.73" style="fill:none;stroke:#fff;stroke-miterlimit:10;stroke-width:2px"/><line x1="22.45" y1="55.87" x2="67.23" y2="55.87" style="fill:none;stroke:#fff;stroke-miterlimit:10;stroke-width:2px"/><line x1="61.74" y1="61.87" x2="67.94" y2="61.87" style="fill:none;stroke:#fff;stroke-miterlimit:10;stroke-width:2px"/><line x1="21.74" y1="61.87" x2="27.94" y2="61.87" style="fill:none;stroke:#fff;stroke-miterlimit:10;stroke-width:2px"/><polygon points="40.34 69.05 49.69 69.05 45.01 62.06 40.34 69.05" style="fill:#fff"/><polygon points="49.69 71.66 40.34 71.66 45.01 78.65 49.69 71.66" style="fill:#fff"/></svg>