<svg id="Layer_1" data-name="Layer 1" xmlns="http://www.w3.org/2000/svg" xmlns:xlink="http://www.w3.org/1999/xlink" viewBox="0 0 223.54 216.7"><defs><clipPath id="clip-path"><path d="M111.63,47a61.2,61.2,0,1,0,61.2,61.2A61.2,61.2,0,0,0,111.63,47Zm29,77.94-29,16.74-29-16.74V91.41l29-16.74,29,16.74Z" style="fill:none"/></clipPath></defs><polygon points="211.44 89.74 223.54 100.2 213.07 112.31 211.44 89.74" style="fill:#fff"/><polygon points="177.82 185.46 174.69 201.15 159 198.02 177.82 185.46" style="fill:#fff"/><polygon points="77.61 203.72 62.48 208.91 57.29 193.78 77.61 203.72" style="fill:#fff"/><polygon points="12.16 126.39 0 116 10.4 103.83 12.16 126.39" style="fill:#fff"/><polygon points="45.99 30.67 49.06 14.97 64.76 18.04 45.99 30.67" style="fill:#fff"/><polygon points="165.77 22.25 160.57 7.12 145.44 12.32 165.77 22.25" style="fill:#fff"/><g style="opacity:0.75"><path d="M90.83,6.73l98.24,32.69,20.81,101.43-77.44,68.73L34.2,176.89,13.39,75.46,90.83,6.73m-.7-3.39-80,71L31.61,179.19,133.14,213l80-71L191.66,37.12,90.13,3.34Z" style="fill:#fff"/></g><polyline points="117.99 1.34 22.31 49.24 15.95 156.06 105.27 214.97 200.96 167.07 207.32 60.26 117.99 1.34" style="fill:none;stroke:#fff;stroke-miterlimit:10;stroke-width:3px;opacity:0.75"/><g style="opacity:0.25"><path d="M111.63,26.57a81.59,81.59,0,1,0,81.59,81.59A81.59,81.59,0,0,0,111.63,26.57ZM133.82,121l-22.19,12.81L89.45,121V95.35l22.18-12.81,22.19,12.81Z" style="fill:#fff"/></g><path d="M127,106.88l-2.11-2.1a18.1,18.1,0,0,0-25.6,0l-2.11,2.1a.5.5,0,0,0,0,.68l2.11,2.11a18.62,18.62,0,0,0,25.6,0l2.11-2.11A.48.48,0,0,0,127,106.88Zm-14.87,6a5.72,5.72,0,1,1,5.72-5.72A5.72,5.72,0,0,1,112.08,112.89Z" style="fill:#fff"/><g style="clip-path:url(#clip-path)"><path d="M88,122.34H46.15m28.11,0L46.15,94.41m16,27.93-16-15.85m52.1,25.77L62,153.19M48,129l38.31,10.13m-32.27.32,21.74,5.76m36.26-9.49L91.16,172m14-24.34L67,158m10.46,6,21.71-5.89m26.66-26.35v41.85m-27.93,0,27.93-28.11m-15.86,28.11,15.86-16m9.92-36.14,20.92,36.25m-24.19,14,10.14-38.31m.32,32.28L148.66,144m-9.48-36.26,36.25,20.92m-14,24.19-10.38-38.24m16.42,27.79-5.89-21.71M135.27,94h41.85m0,27.93L149,94m28.11,15.85L161.16,94M125,84.07l36.24-20.93M66.63,58.53,87.55,94.78m3.26-50.21L80.68,82.88M74.61,72.35l5.75-21.74M136.92,77.2l38.31,10.13m-6-10.45-21.75-5.76M111.19,80.6l20.92-36.24m24.19,14L118.06,68.7m27.78-16.41-21.71,5.89M47.85,87.69l36.24,20.92M61.82,63.5l10.37,38.24M61.67,95.67,55.78,74M97.47,42.67V84.52M125.4,42.67,97.47,70.78m15.86-28.11-15.86,16" style="fill:none;stroke:#fff;stroke-miterlimit:10;stroke-width:3.5px"/></g></svg>