<svg id="Layer_1" data-name="Layer 1" xmlns="http://www.w3.org/2000/svg" xmlns:xlink="http://www.w3.org/1999/xlink" viewBox="0 0 179.49 179.49"><defs><clipPath id="clip-path"><rect x="80.94" y="42.23" width="17.6" height="27.78" style="fill:none"/></clipPath><clipPath id="clip-path-2"><rect x="74.34" y="106.99" width="30.79" height="30.27" style="fill:none"/></clipPath><clipPath id="clip-path-3"><path d="M44.14,53.63H71.05L89.9,72.48V112H81.4l-6.46-4.2L18.09,53.63ZM75.56,78.28l-1.08-8-3.59-2.17h-6Z" style="fill:none"/></clipPath><clipPath id="clip-path-4"><path d="M135.35,53.63H108.44L89.59,72.48V112h8.5l6.45-4.2L161.4,53.63ZM103.92,78.28l1.08-8,3.59-2.17h6Z" style="fill:none"/></clipPath></defs><g style="opacity:0.75"><path d="M89.74,3A86.75,86.75,0,1,1,3,89.74,86.84,86.84,0,0,1,89.74,3m0-3a89.75,89.75,0,1,0,89.75,89.74A89.74,89.74,0,0,0,89.74,0Z" style="fill:#fff"/></g><g style="opacity:0.25"><path d="M89.74,8.16a81.59,81.59,0,1,0,81.59,81.58A81.59,81.59,0,0,0,89.74,8.16ZM46.63,127h-5V108.72h5Zm10,10h-5V94.72h5Zm66.48-30.71a3,3,0,1,1,3-3A3,3,0,0,1,123.11,106.26Zm15.09,21.43h-5v-34h5Z" style="fill:#fff"/></g><g style="clip-path:url(#clip-path)"><polyline points="107.48 43.88 89.74 60.79 72 43.88" style="fill:none;stroke:#fff;stroke-miterlimit:10;stroke-width:5px"/></g><g style="clip-path:url(#clip-path-2)"><polyline points="107.48 114 89.74 130.91 72 114" style="fill:none;stroke:#fff;stroke-miterlimit:10;stroke-width:5px"/></g><g style="clip-path:url(#clip-path-3)"><path d="M83.72,109.33v-35L69.59,60.24H20M73.8,73.3H20m0,13.06h51v21.48" style="fill:none;stroke:#fff;stroke-miterlimit:10;stroke-width:5px"/></g><g style="clip-path:url(#clip-path-4)"><path d="M95.76,109.33v-35L109.9,60.24h49.55M105.69,73.3h53.76m0,13.06h-51v21.48" style="fill:none;stroke:#fff;stroke-miterlimit:10;stroke-width:5px"/></g></svg>