<svg id="Layer_1" data-name="Layer 1" xmlns="http://www.w3.org/2000/svg" viewBox="0 0 111.77 106.81"><polygon points="105.72 44.2 111.77 49.43 106.54 55.48 105.72 44.2" style="fill:#fff"/><polygon points="88.91 92.06 87.34 99.91 79.5 98.34 88.91 92.06" style="fill:#fff"/><polygon points="38.81 101.19 31.24 103.79 28.64 96.22 38.81 101.19" style="fill:#fff"/><polygon points="6.08 62.53 0 57.33 5.2 51.25 6.08 62.53" style="fill:#fff"/><polygon points="22.99 14.67 24.53 6.82 32.38 8.35 22.99 14.67" style="fill:#fff"/><polygon points="82.89 10.46 80.28 2.89 72.72 5.49 82.89 10.46" style="fill:#fff"/><g style="opacity:0.75"><path d="M45.41,2.69,94.53,19l10.41,50.71L66.22,104.12,17.1,87.77,6.7,37.06,45.41,2.69M45.07,1l-40,35.51L15.8,88.92l50.77,16.9,40-35.52L95.83,17.89,45.07,1Z" style="fill:#fff"/></g><g style="opacity:0.75"><path d="M58.89,1.73l43.22,28.5L99,81.91,52.74,105.09,9.52,76.58,12.6,24.9,58.89,1.73M59,0,11.15,24,8,77.36l44.67,29.45,47.84-24,3.18-53.4L59,0Z" style="fill:#fff"/></g><g style="opacity:0.25"><path d="M55.82,12.61a40.8,40.8,0,1,0,40.79,40.8A40.8,40.8,0,0,0,55.82,12.61Z" style="fill:#fff"/></g><path d="M56.28,78l6.9-14.4,1.43,5.84,3.84-6.64.06-.11-.06-.11L56.16,41.26,43.88,62.54l-.07.11.07.11,3.83,6.64,1.4-5.69ZM48.69,58.41l1.05-1a9.05,9.05,0,0,1,12.81,0l1.05,1a.25.25,0,0,1,0,.34l-1.05,1a9.32,9.32,0,0,1-12.81,0l-1.05-1A.25.25,0,0,1,48.69,58.41Z" style="fill:#fff"/><circle cx="56.17" cy="58.55" r="2.86" style="fill:#fff"/><polygon points="56.16 22.78 53.44 27.5 58.89 27.5 56.16 22.78" style="fill:#fff"/><polygon points="53.44 27.5 53.44 27.5 41.44 48.27 44.06 52.81 56.06 32.03 53.44 27.5" style="fill:#fff"/><polygon points="58.89 27.5 58.89 27.5 56.27 32.03 68.26 52.81 70.88 48.27 58.89 27.5" style="fill:#fff"/><path d="M56.16,18.93,75,51.36l1.18,2-1.18,2L56.16,87.84,37.29,55.41l-1.18-2,1.18-2L56.16,18.93m0-4.77-2.07,3.57L35.22,50.15l-1.18,2-.7,1.2.7,1.21,1.18,2L54.09,89l2.07,3.57L58.24,89,77.11,56.62l1.18-2,.7-1.21-.7-1.2-1.18-2L58.24,17.73l-2.08-3.57Z" style="fill:#606060"/></svg>