<svg id="Layer_1" data-name="Layer 1" xmlns="http://www.w3.org/2000/svg" xmlns:xlink="http://www.w3.org/1999/xlink" viewBox="0 0 179.49 179.49"><defs><clipPath id="clip-path"><polygon points="120.7 144.69 120.7 48.69 92.7 48.69 66.81 78.13 53.11 77.17 79.15 48.44 37.19 48.44 17.49 77.37 64.18 142.84 120.7 144.69" style="fill:none"/></clipPath><clipPath id="clip-path-2"><polygon points="75.95 48.44 102.81 48.44 76.7 48.69 54.7 76.69 82.7 118.69 128.85 77.17 74.38 146.64 116.66 146.64 167.6 77.37 132.96 38.69 86.77 38.69 75.95 48.44" style="fill:none"/></clipPath></defs><g style="opacity:0.25"><path d="M89.74,8.16a81.59,81.59,0,1,0,81.59,81.58A81.59,81.59,0,0,0,89.74,8.16Zm15,23.53-2,19h-6Zm-22,19h-6l-2-19Zm-7.35,65.73L52.65,87.47l3.41-3.76,22.7,29ZM90.1,90.69l-11-12h22Zm14.58,25.73-3.41-3.76L124,83.71l3.41,3.76Z" style="fill:#fff"/></g><g style="opacity:0.75"><path d="M89.74,3A86.75,86.75,0,1,1,3,89.74,86.84,86.84,0,0,1,89.74,3m0-3a89.75,89.75,0,1,0,89.75,89.74A89.74,89.74,0,0,0,89.74,0Z" style="fill:#fff"/></g><g style="clip-path:url(#clip-path)"><polygon points="98.38 58.44 50.38 58.44 32.98 77.64 74.38 130.44 115.78 77.64 98.38 58.44" style="fill:none;stroke:#fff;stroke-miterlimit:10;stroke-width:4px"/></g><g style="clip-path:url(#clip-path-2)"><polygon points="129.58 58.44 81.58 58.44 64.18 77.64 105.58 130.44 146.98 77.64 129.58 58.44" style="fill:none;stroke:#fff;stroke-miterlimit:10;stroke-width:4px"/></g><polygon points="52.7 79.69 32.7 79.69 32.7 75.69 56.7 75.69 52.7 79.69" style="fill:#fff"/><polygon points="126.7 79.69 146.7 79.69 146.7 75.69 122.7 75.69 126.7 79.69" style="fill:#fff"/><polygon points="92.7 50.69 86.7 50.69 89.7 36.69 92.7 50.69" style="fill:#fff"/><polygon points="51.3 30.1 65.72 50.69 73.28 50.69 51.3 30.1" style="fill:#fff"/><polygon points="128.1 30.1 113.68 50.69 106.12 50.69 128.1 30.1" style="fill:#fff"/><rect x="82.7" y="128.69" width="16" height="16" transform="translate(123.22 -24.1) rotate(45)" style="fill:#fff"/></svg>