<svg id="Layer_1" data-name="Layer 1" xmlns="http://www.w3.org/2000/svg" viewBox="0 0 179.49 179.49"><g style="opacity:0.75"><path d="M89.74,3A86.75,86.75,0,1,1,3,89.74,86.84,86.84,0,0,1,89.74,3m0-3a89.75,89.75,0,1,0,89.75,89.74A89.74,89.74,0,0,0,89.74,0Z" style="fill:#fff"/></g><circle cx="155.74" cy="82.5" r="5.83" style="fill:#fff"/><g style="opacity:0.25"><path d="M89.74,8.16a81.59,81.59,0,1,0,81.59,81.58A81.59,81.59,0,0,0,89.74,8.16Zm-56,66A11.66,11.66,0,0,0,22.08,62.5,11.66,11.66,0,0,0,33.74,50.83,11.67,11.67,0,0,0,45.41,62.5,11.67,11.67,0,0,0,33.74,74.17ZM67.51,48.05V36.8L77.82,48.05Zm23,0-7.72-8,7.72-8,8,8Zm23.28,0H103.49L113.8,36.8Zm31.94,26.12A11.66,11.66,0,0,0,134.08,62.5a11.66,11.66,0,0,0,11.66-11.67A11.67,11.67,0,0,0,157.41,62.5,11.67,11.67,0,0,0,145.74,74.17Z" style="fill:#fff"/></g><circle cx="23.74" cy="82.5" r="5.83" style="fill:#fff"/><path d="M104.57,41.59,90.46,27.48,76.82,41.59,63.87,27.48v24.2h53.65V27.48ZM67.51,48.05V36.8L77.82,48.05Zm23,0-7.72-8,7.72-8,8,8Zm23.28,0H103.49L113.8,36.8Z" style="fill:#fff"/><path d="M130.34,96.43l-39.9,50L73.38,125.06l37.53-34.64h29.34l1.5-1.89L121.42,57.26H69.82l.64,4h40L67.25,79.43,64.36,61.26h0l-.63-4H61L39.11,88.5,63.4,119l-1.28-8-18-22.6L60.82,64.46l8.91,56,0,0,1.28,8,19.45,24.4,45-56.44ZM67.89,83.5l51.68-21.74,16,24.66H109.35l-35.74,33Z" style="fill:#fff"/></svg>