<svg id="Layer_1" data-name="Layer 1" xmlns="http://www.w3.org/2000/svg" viewBox="0 0 179.49 179.49"><path d="M89.74,8.16a81.59,81.59,0,1,0,81.59,81.58A81.59,81.59,0,0,0,89.74,8.16ZM81.61,60.59a3,3,0,1,1-3,3A3,3,0,0,1,81.61,60.59Zm-4.55,49.74v11.29h-5V110.33H64.48L57.17,93.86,74.48,71.77l8.74,11.15L74.44,94.11l6.43,14.48h4.38l-.77,1.74Zm38,0h-7.59v11.29h-5V110.33H95l-.78-1.74h4.38L105,94.11,96.27,82.92,105,71.77l17.31,22.09Z" style="fill:#fff;opacity:0.25"/><g style="opacity:0.75"><path d="M89.74,3A86.75,86.75,0,1,1,3,89.74,86.84,86.84,0,0,1,89.74,3m0-3a89.75,89.75,0,1,0,89.75,89.74A89.74,89.74,0,0,0,89.74,0Z" style="fill:#fff"/></g><polygon points="89.74 36.67 60.36 45.29 40.31 68.44 35.95 98.75 48.67 126.6 74.43 143.16 105.06 143.16 130.82 126.6 143.54 98.75 139.18 68.44 119.13 45.29 89.74 36.67" style="fill:none;stroke:#fff;stroke-miterlimit:10;stroke-width:5px"/><polygon points="53.13 129.53 62.64 135.64 61.13 137.99 55.44 139.87 45.93 133.76 51.62 131.88 53.13 129.53" style="fill:#fff"/><polygon points="39.21 106.1 43.9 116.38 41.36 117.54 35.56 116.05 30.87 105.76 36.67 107.26 39.21 106.1" style="fill:#fff"/><polygon points="38.64 79.08 37.03 90.27 34.27 89.87 30.19 85.48 31.8 74.29 35.87 78.68 38.64 79.08" style="fill:#fff"/><polygon points="51.36 55.4 43.96 63.94 41.85 62.12 40.8 56.22 48.2 47.68 49.25 53.57 51.36 55.4" style="fill:#fff"/><polygon points="74.03 41.06 63.19 44.24 62.4 41.56 64.7 36.04 75.55 32.85 73.24 38.38 74.03 41.06" style="fill:#fff"/><polygon points="100.86 39.71 90.01 36.52 90.8 33.84 95.72 30.44 106.57 33.63 101.64 37.03 100.86 39.71" style="fill:#fff"/><path d="M125,51.78l-5.79-6.69-.27-.07.79-2.68c.31-.2.56-.43.88-.62a7.79,7.79,0,0,1,1.12-.56,5.19,5.19,0,0,1,1,0,5,5,0,0,1,.54.06,2.86,2.86,0,0,0,.54.06l1.91-.07,7.4,8.55-6,.2Z" style="fill:#fff"/><path d="M140.17,74.33l-.87-6-2-2.28,2.11-1.82,3-.11,1.49,0a1.39,1.39,0,0,1,.4,0l.51.14q.51.15,1.08.36l.45.52L148.07,77l-5.14-3.07Z" style="fill:#fff"/><polygon points="142.27 101.73 143.67 98.68 142.85 92.98 145.61 92.58 150.76 95.65 151.35 99.78 147.48 108.26 144.81 102.89 142.27 101.73" style="fill:#fff"/><polygon points="130.4 126.94 130.92 126.6 134.45 118.87 136.99 120.03 139.66 125.39 136.78 131.68 131.25 135.24 131.91 129.28 130.4 126.94" style="fill:#fff"/><path d="M105.09,143.2l9.46-6.08,1.51,2.35-.66,5.95-8.12,5.22h-3.83l1.37-1.69a7,7,0,0,1,.81-.84,4.7,4.7,0,0,0,.65-.85,5.56,5.56,0,0,0,.28-1.69Z" style="fill:#fff"/><path d="M77.07,143.2h11.3V146l-3.76,4.65H72.21a15.85,15.85,0,0,0,1.93-1.16,2.06,2.06,0,0,0,.57-.58l.48-.58L77.07,146Z" style="fill:#fff"/><circle cx="100.04" cy="59.05" r="7.47" style="fill:#fff"/><polygon points="80.87 108.59 98.61 108.59 105.04 94.11 89.74 74.59 74.44 94.11 80.87 108.59" style="fill:none;stroke:#fff;stroke-miterlimit:10;stroke-width:3.47826075553894px"/><polygon points="81.01 85.73 74.48 77.41 61.2 94.36 66.74 106.85 80.1 106.85 74.44 94.11 81.01 85.73" style="fill:#fff;opacity:0.25"/><polygon points="118.29 94.36 105 77.41 98.48 85.73 105.04 94.11 99.39 106.85 112.74 106.85 118.29 94.36" style="fill:#fff;opacity:0.25"/><line x1="89.74" y1="129.62" x2="89.74" y2="107.37" style="fill:none;stroke:#fff;stroke-linejoin:round;stroke-width:5px"/></svg>