<svg id="Layer_1" data-name="Layer 1" xmlns="http://www.w3.org/2000/svg" viewBox="0 0 89.74 89.74"><g style="opacity:0.25"><circle cx="44.87" cy="44.87" r="40.79" style="fill:#fff"/></g><g style="opacity:0.75"><path d="M44.87,1.5A43.37,43.37,0,1,1,1.5,44.87,43.42,43.42,0,0,1,44.87,1.5m0-1.5A44.87,44.87,0,1,0,89.74,44.87,44.87,44.87,0,0,0,44.87,0Z" style="fill:#fff"/></g><polygon points="54.35 42.35 38.84 58.08 38.79 58.11 31.66 53.88 17.4 66.35 73.66 66.35 54.35 42.35" style="fill:none;stroke:#fff;stroke-miterlimit:10;stroke-width:2px"/><path d="M73.91,33.4l-7.38-9.69L68,22.16,60.22,15l-1.43,1.54-6.35-4.06,0,5.4,2.72,2.64-2,2.22,7.74,7.14,2-2.22L76.13,39.93A30.12,30.12,0,0,0,73.91,33.4Z" style="fill:#fff"/><polygon points="63.96 15.41 33.43 48.52 37.39 50.87 67.27 18.47 63.96 15.41" style="fill:#fff"/><polygon points="69.15 54.99 77.94 50.92 69.1 48.7 69.4 44.66 62.31 46.5 64 48.6 66.69 47.9 66.49 50.58 70.59 51.61 67.56 53.01 69.15 54.99" style="fill:#606060"/><path d="M64,54.19l-6.34,2.09L59.86,59l-12.08.7L54.58,57l-2.5-3.11,9-3.33Zm0,0" style="fill:#fff"/><path d="M27,30.25a3,3,0,0,1,0-6.08H42.18" style="fill:none;stroke:#606060;stroke-width:2.5px"/><line x1="40.66" y1="19.6" x2="31.54" y2="19.6" style="fill:none;stroke:#606060;stroke-linejoin:round;stroke-width:2.5px"/><circle cx="46.09" cy="19.68" r="1.5" style="fill:#606060"/></svg>