<svg id="Layer_1" data-name="Layer 1" xmlns="http://www.w3.org/2000/svg" xmlns:xlink="http://www.w3.org/1999/xlink" viewBox="0 0 179.49 179.49"><defs><clipPath id="clip-path"><path d="M110.74,24.75l-9.31,9.49,13.5,13.26L97.88,64.86l-67.12,68L15,81.58,27.48,41,56.91,20.57l39.18-7.69ZM65,164.8l50-1.93,38.06-28,11.7-51.27-10.86-29.2L136.39,72l-8-7.91-3.29-3.29L102.77,83.59,45.56,147.47Z" style="fill:none"/></clipPath></defs><g style="opacity:0.75"><path d="M89.74,3A86.75,86.75,0,1,1,3,89.74,86.84,86.84,0,0,1,89.74,3m0-3a89.75,89.75,0,1,0,89.75,89.74A89.74,89.74,0,0,0,89.74,0Z" style="fill:#fff"/></g><polygon points="141.69 47.94 139.97 49.66 133.4 43.23 111.37 29.82 107.08 34.19 120.59 47.44 100.73 67.67 36.41 132.81 38.3 134.68 86.73 89.67 42.34 138.67 45.38 141.67 99.92 80.78 126.73 53.48 131.57 58.21 129.89 59.9 131.25 61.25 136.37 66.34 148.18 54.4 141.69 47.94" style="fill:#fff"/><g style="clip-path:url(#clip-path)"><polyline points="31.3 47.33 40.05 52.74 46.77 65.36 60.84 62.87 62.83 48.71 49.98 42.45 44.75 33.89" style="fill:none;stroke:#fff;stroke-miterlimit:10;stroke-width:4px"/><polygon points="63.22 73.3 54.87 64.95 60.46 62.7 62.71 57.11 71.06 65.46 63.22 73.3" style="fill:#fff"/><line x1="60.96" y1="63.07" x2="137.29" y2="128.27" style="fill:none;stroke:#fff;stroke-miterlimit:10;stroke-width:4px"/><line x1="60.96" y1="63.07" x2="126.16" y2="139.4" style="fill:none;stroke:#fff;stroke-miterlimit:10;stroke-width:4px"/></g><g style="opacity:0.25"><path d="M89.74,8.16a81.59,81.59,0,1,0,81.59,81.58A81.59,81.59,0,0,0,89.74,8.16Zm5.44,109.52,2.91,6.66-2,4.36-1.83-2.51ZM76.9,125.51l1.56,9.56L77,137.66l-1.75-5.23ZM31.23,76.59l35.9,15.58L29.83,80.33ZM21.78,79a4,4,0,1,1,4-4A4,4,0,0,1,21.78,79ZM33,103.58a4,4,0,1,1,4-4A4,4,0,0,1,33,103.58Zm7.24-6.89,26.9,1-26.76,3ZM73,159.24l-5.85-4.72,1.1-7.5,3.42-5.71-1-6.46L74.05,141l-.78,8.3,6.34,11.9Zm13.87,3.63-9.86-11,4.59-17.75V121.41l4.73-13.83,1.42,15.59,6.83,9.75,1.53,15Zm8.05-1.68.56-6.15,5.75-13-1.95-7,1.37-7.7,2.34,6.34,5.66,5.36.87,13.17ZM108,89.74l36.57-10.12.86,3.91Zm45-6.16a4,4,0,1,1,4-4A4,4,0,0,1,153,83.58Z" style="fill:#fff"/></g></svg>