<svg id="Layer_1" data-name="Layer 1" xmlns="http://www.w3.org/2000/svg" xmlns:xlink="http://www.w3.org/1999/xlink" viewBox="0 0 89.74 89.74"><defs><clipPath id="clip-path"><circle cx="44.8" cy="44.87" r="40.79" style="fill:none"/></clipPath><clipPath id="clip-path-2"><circle cx="44.87" cy="44.87" r="44.87" style="fill:none;clip-path:url(#clip-path)"/></clipPath><clipPath id="clip-path-3"><polygon points="67.55 11.75 21.87 28.06 21.87 70.41 35.1 65.69 36.83 60.57 67.55 49.6 67.55 11.75" style="fill:none"/></clipPath></defs><g style="opacity:0.25"><circle cx="44.8" cy="44.87" r="40.79" style="fill:#fff"/></g><g style="opacity:0.75"><path d="M44.87,1.5A43.37,43.37,0,1,1,1.5,44.87,43.42,43.42,0,0,1,44.87,1.5m0-1.5A44.87,44.87,0,1,0,89.74,44.87,44.87,44.87,0,0,0,44.87,0Z" style="fill:#fff"/></g><g style="clip-path:url(#clip-path-2)"><line x1="92.59" y1="38.87" x2="-5.41" y2="38.87" style="fill:none;stroke:#606060;stroke-miterlimit:10;stroke-width:2px"/><line x1="92.59" y1="32.87" x2="-5.41" y2="32.87" style="fill:none;stroke:#606060;stroke-miterlimit:10;stroke-width:2px"/><line x1="92.59" y1="44.87" x2="-5.41" y2="44.87" style="fill:none;stroke:#606060;stroke-miterlimit:10;stroke-width:2px"/><line x1="92.59" y1="50.87" x2="-5.41" y2="50.87" style="fill:none;stroke:#606060;stroke-miterlimit:10;stroke-width:2px"/><line x1="92.59" y1="56.87" x2="-5.41" y2="56.87" style="fill:none;stroke:#606060;stroke-miterlimit:10;stroke-width:2px"/></g><g style="clip-path:url(#clip-path-3)"><line x1="39.42" y1="69.06" x2="39.42" y2="13.66" style="fill:none;stroke:#fff;stroke-miterlimit:10;stroke-width:2px"/><line x1="45.72" y1="69.06" x2="45.72" y2="13.66" style="fill:none;stroke:#fff;stroke-miterlimit:10;stroke-width:2px"/><line x1="52.02" y1="69.06" x2="52.02" y2="13.66" style="fill:none;stroke:#fff;stroke-miterlimit:10;stroke-width:2px"/><line x1="58.32" y1="69.06" x2="58.32" y2="19.66" style="fill:none;stroke:#fff;stroke-miterlimit:10;stroke-width:2px"/><line x1="33.12" y1="64.56" x2="33.12" y2="13.66" style="fill:none;stroke:#fff;stroke-miterlimit:10;stroke-width:2px"/><polygon points="34.11 65.91 21.51 70.41 21.51 58.26 34.11 53.76 34.11 65.91" style="fill:#fff"/></g><polygon points="57.34 15.39 57.34 23.54 65.78 34.48 65.78 26.56 57.34 15.39" style="fill:#fff"/><polygon points="57.34 28.39 57.34 36.54 65.78 47.48 65.78 39.56 57.34 28.39" style="fill:#fff"/></svg>