<svg id="Layer_1" data-name="Layer 1" xmlns="http://www.w3.org/2000/svg" viewBox="0 0 179.49 179.49"><g style="opacity:0.75"><path d="M89.74,3A86.75,86.75,0,1,1,3,89.74,86.84,86.84,0,0,1,89.74,3m0-3a89.75,89.75,0,1,0,89.75,89.74A89.74,89.74,0,0,0,89.74,0Z" style="fill:#fff"/></g><polygon points="147.54 74.14 147.54 68.14 105.46 68.14 105.46 62.14 133.52 62.14 89.74 36.86 58.62 54.84 125.66 121.88 135.54 116.18 135.54 92.14 105.46 92.14 105.46 86.14 141.54 86.14 141.54 80.14 95.46 80.14 95.46 74.14 147.54 74.14" style="fill:#fff"/><polyline points="66.75 40.14 89.74 26.86 112.74 40.14" style="fill:none;stroke:#fff;stroke-miterlimit:10;stroke-width:4px"/><circle cx="152.46" cy="83.14" r="3.45" style="fill:#fff"/><circle cx="158.46" cy="71.14" r="3.45" style="fill:#fff"/><g style="opacity:0.25"><path d="M89.74,8.16a81.59,81.59,0,1,0,81.59,81.58A81.59,81.59,0,0,0,89.74,8.16ZM21,111.8a3.45,3.45,0,1,1,3.45-3.45A3.45,3.45,0,0,1,21,111.8Zm6-12a3.45,3.45,0,1,1,3.45-3.45A3.45,3.45,0,0,1,27,99.8Zm62.71,55.13-24-13.85,2-3.46,22,12.69,22-12.69,2,3.46Zm-.32-12.31L45.64,117.35H73.7v-6H31.62v-6H83.7v-6H37.62v-6H73.7v-6H43.62v-24l9.88-5.7,67.05,67.05Z" style="fill:#fff"/></g></svg>