<svg id="Layer_1" data-name="Layer 1" xmlns="http://www.w3.org/2000/svg" xmlns:xlink="http://www.w3.org/1999/xlink" viewBox="0 0 179.49 179.49"><defs><clipPath id="clip-path"><path d="M144.59,77.55v5H34.89v-5Zm-109.7,66.7h109.7v-26.7H34.89Zm0-41.7h109.7v-5H34.89ZM144.59,66.4H34.89v6.15h109.7Zm0-33H34.89V61.55h109.7ZM34.89,112.55h109.7v-5H34.89Zm0-20h109.7v-5H34.89Z" style="fill:none"/></clipPath></defs><g style="opacity:0.75"><path d="M89.74,3A86.75,86.75,0,1,1,3,89.74,86.84,86.84,0,0,1,89.74,3m0-3a89.75,89.75,0,1,0,89.75,89.74A89.74,89.74,0,0,0,89.74,0Z" style="fill:#fff"/></g><g style="clip-path:url(#clip-path)"><path d="M91,142.74l-45.9-26.5v-53L91,36.74l45.9,26.5v53Zm0-7.05,39.8-23V66.77L91,43.79l-39.79,23v46Z" style="fill:#fff"/><path d="M58.3,108.64V70.85L91,52l32.73,18.9v37.79L91,127.54Z" style="fill:#fff"/></g><g style="opacity:0.25"><path d="M89.74,8.16a81.59,81.59,0,1,0,81.59,81.58A81.59,81.59,0,0,0,89.74,8.16ZM91,155.05,48,130.2h8L91,150.43l35.05-20.23h8ZM126.08,49.29,91,29.05,56,49.29H48L91,24.43l43.05,24.86Z" style="fill:#fff"/></g></svg>