<svg id="Layer_1" data-name="Layer 1" xmlns="http://www.w3.org/2000/svg" viewBox="0 0 179.49 179.49"><g style="opacity:0.75"><path d="M89.74,3A86.75,86.75,0,1,1,3,89.74,86.84,86.84,0,0,1,89.74,3m0-3a89.75,89.75,0,1,0,89.75,89.74A89.74,89.74,0,0,0,89.74,0Z" style="fill:#fff"/></g><line x1="64.93" y1="51.82" x2="77.61" y2="93.32" style="fill:none;stroke:#fff;stroke-miterlimit:10;stroke-width:4px"/><polyline points="69.57 67.1 51.11 97.31 69.57 119.38" style="fill:none;stroke:#fff;stroke-miterlimit:10;stroke-width:4px"/><line x1="61.61" y1="126.64" x2="82.61" y2="111.82" style="fill:none;stroke:#fff;stroke-miterlimit:10;stroke-width:4px"/><line x1="117.3" y1="51.82" x2="104.61" y2="93.32" style="fill:none;stroke:#fff;stroke-miterlimit:10;stroke-width:4px"/><polyline points="120.61 80.31 106.61 95.31 99.61 87.81 99.61 111.81 91.11 120.38 82.61 111.81 82.61 87.81 75.61 95.31 61.61 80.31" style="fill:none;stroke:#fff;stroke-miterlimit:10;stroke-width:4px"/><polyline points="112.66 67.1 131.11 97.31 112.66 119.38" style="fill:none;stroke:#fff;stroke-miterlimit:10;stroke-width:4px"/><line x1="99.61" y1="111.82" x2="120.61" y2="126.64" style="fill:none;stroke:#fff;stroke-miterlimit:10;stroke-width:4px"/><polygon points="103.67 51.81 96.11 73.31 86.11 73.31 78.55 51.81 64.93 51.81 36.61 100.64 73.87 139.38 91.11 126.64 108.36 139.38 145.61 100.64 117.3 51.81 103.67 51.81" style="fill:none;stroke:#fff;stroke-miterlimit:10;stroke-width:4px"/><polygon points="90.99 119.58 82.99 110.58 98.99 110.58 90.99 119.58" style="fill:#fff"/><g style="opacity:0.25"><path d="M89.74,8.16a81.59,81.59,0,1,0,81.59,81.58A81.59,81.59,0,0,0,89.74,8.16ZM47,75.52,41.52,58.43,55,62Zm20.73,28.25L63,89.58l9.47,9.11ZM91.13,67.92l-6.9-22.26h15Zm23.38,35.85-4.74-5.08,9.47-9.11Zm20.72-28.25-8-13.48,13.47-3.61Z" style="fill:#fff"/></g><path d="M44.84,83.86l3.77-1.33-1.08-3.06L57.82,62.12l1.53.39,1-3.87L33.48,51.72ZM47,75.52,41.52,58.43,55,62Z" style="fill:#fff"/><path d="M121.88,58.64l1,3.87,1-.26,10.76,17.28-1.06,3,3.77,1.33,11.37-32.14Zm13.35,16.88-8-13.48,13.47-3.61Z" style="fill:#fff"/></svg>