<svg id="Layer_1" data-name="Layer 1" xmlns="http://www.w3.org/2000/svg" xmlns:xlink="http://www.w3.org/1999/xlink" viewBox="0 0 179.49 179.49"><defs><clipPath id="clip-path"><rect x="33.97" y="75.67" width="111.2" height="79.48" style="fill:none"/></clipPath></defs><g style="opacity:0.75"><path d="M89.74,3A86.75,86.75,0,1,1,3,89.74,86.84,86.84,0,0,1,89.74,3m0-3a89.75,89.75,0,1,0,89.75,89.74A89.74,89.74,0,0,0,89.74,0Z" style="fill:#fff"/></g><path d="M111.39,73.39" style="fill:none;stroke:#606060;stroke-miterlimit:10;stroke-width:4px"/><path d="M67.74,73.39" style="fill:none;stroke:#606060;stroke-miterlimit:10;stroke-width:4px"/><g style="clip-path:url(#clip-path)"><line x1="80.61" y1="144.23" x2="80.61" y2="108.39" style="fill:none;stroke:#fff;stroke-miterlimit:10;stroke-width:4px"/><line x1="98.53" y1="108.39" x2="98.53" y2="144.23" style="fill:none;stroke:#fff;stroke-miterlimit:10;stroke-width:4px"/><polygon points="98.53 145.19 89.74 151.19 80.61 145.19 80.61 142.95 98.53 142.95 98.53 145.19" style="fill:#fff;stroke:#fff;stroke-miterlimit:10;stroke-width:4px"/><polygon points="80.61 107.65 75.49 103.27 61.41 101.99 73.33 112.87 80.61 112.87 80.61 107.65" style="fill:none;stroke:#fff;stroke-miterlimit:10;stroke-width:4px"/><polygon points="98.53 107.65 103.65 103.27 117.73 101.99 105.81 112.87 98.53 112.87 98.53 107.65" style="fill:none;stroke:#fff;stroke-miterlimit:10;stroke-width:4px"/><polyline points="111.39 73.39 139.98 101.99 98.19 143.9" style="fill:none;stroke:#fff;stroke-miterlimit:10;stroke-width:4px"/><polyline points="80.3 143.25 39.15 101.99 67.74 73.39" style="fill:none;stroke:#fff;stroke-miterlimit:10;stroke-width:4px"/><polyline points="51.29 89.84 39.15 77.67 139.98 77.67 127.84 89.84" style="fill:none;stroke:#fff;stroke-miterlimit:10;stroke-width:4px"/><polyline points="100.42 77.67 89.57 88.55 78.72 77.67" style="fill:none;stroke:#fff;stroke-miterlimit:10;stroke-width:4px"/></g><g style="opacity:0.25"><path d="M89.74,8.16a81.59,81.59,0,1,0,81.59,81.58A81.59,81.59,0,0,0,89.74,8.16ZM36,120.44l-6.37,6.36V112.66H15.49l6.36-6.36H36ZM62.29,24.3H76.43l6.36,6.36H71.49L86.72,45.9,83.9,48.73,68.65,33.48V44.8l-6.36-6.36ZM110,74.81,92.39,57.23l2.83-2.83L112.8,72Zm6.82-36.37-6.36,6.36V33.54L69.16,74.81,66.33,72l41.32-41.32H96.29l6.36-6.36h14.14Zm33.06,88.36-6.36-6.36V106.3h14.14l6.37,6.36H149.85Z" style="fill:#fff"/></g><g style="opacity:0.25"><polygon points="110.43 30.66 110.31 30.66 110.43 30.78 110.43 30.66" style="fill:#fff"/></g></svg>