<svg id="Layer_1" data-name="Layer 1" xmlns="http://www.w3.org/2000/svg" viewBox="0 0 179.49 179.49"><g style="opacity:0.75"><path d="M89.74,3A86.75,86.75,0,1,1,3,89.74,86.84,86.84,0,0,1,89.74,3m0-3a89.75,89.75,0,1,0,89.75,89.74A89.74,89.74,0,0,0,89.74,0Z" style="fill:#fff"/></g><polyline points="108.81 75.73 108.81 93.7 70.56 93.7 70.56 75.73" style="fill:none;stroke:#fff;stroke-miterlimit:10;stroke-width:4px"/><polyline points="117.79 43.85 89.28 43.85 89.28 57.85" style="fill:none;stroke:#fff;stroke-miterlimit:10;stroke-width:4px"/><line x1="89.28" y1="29.35" x2="89.28" y2="43.94" style="fill:none;stroke:#fff;stroke-miterlimit:10;stroke-width:4px"/><line x1="103.48" y1="29.35" x2="103.48" y2="43.94" style="fill:none;stroke:#fff;stroke-miterlimit:10;stroke-width:4px"/><line x1="75.08" y1="29.35" x2="75.08" y2="56.9" style="fill:none;stroke:#fff;stroke-miterlimit:10;stroke-width:4px"/><polyline points="108.81 93.12 108.81 120.68 89.68 144.17 70.56 120.68 70.56 93.12" style="fill:none;stroke:#fff;stroke-miterlimit:10;stroke-width:4px"/><line x1="96.06" y1="93.41" x2="96.06" y2="135.46" style="fill:none;stroke:#fff;stroke-miterlimit:10;stroke-width:4px"/><line x1="83.31" y1="93.7" x2="83.31" y2="136.04" style="fill:none;stroke:#fff;stroke-miterlimit:10;stroke-width:4px"/><polygon points="84 71.22 95.22 60 62.32 60 62.32 55.7 105.59 55.7 90.08 71.22 84 71.22" style="fill:#fff"/><polygon points="73.9 81.07 59.42 68.3 59.42 27.49 119.94 27.49 119.94 68.33 109 77.59 102.36 77.59 115.64 66.33 115.64 31.78 63.72 31.78 63.72 66.36 80.39 81.07 73.9 81.07" style="fill:#fff"/><g style="opacity:0.25"><path d="M89.74,8.16a81.59,81.59,0,1,0,81.59,81.58A81.59,81.59,0,0,0,89.74,8.16Zm-35.65,106H46.2v-5h7.89Zm0-10H40.2v-5H54.09Zm67.22,21L89.68,164,58.06,125.13v-32h5v30.23L89.68,156l26.63-32.69V93.12h5Zm12-11H125.4v-5h7.89Zm6-10H125.4v-5h13.89Z" style="fill:#fff"/></g></svg>