<svg id="Layer_1" data-name="Layer 1" xmlns="http://www.w3.org/2000/svg" viewBox="0 0 89.74 89.74"><g style="opacity:0.25"><circle cx="44.87" cy="44.87" r="40.79" style="fill:#fff"/></g><g style="opacity:0.75"><path d="M44.87,1.5A43.37,43.37,0,1,1,1.5,44.87,43.42,43.42,0,0,1,44.87,1.5m0-1.5A44.87,44.87,0,1,0,89.74,44.87,44.87,44.87,0,0,0,44.87,0Z" style="fill:#fff"/></g><polygon points="29.42 37.19 22.43 41.27 66.87 41.27 59.88 37.19 29.42 37.19" style="fill:#fff"/><polygon points="44.65 34.19 49.94 30.35 39.36 30.35 44.65 34.19" style="fill:#fff"/><path d="M63.43,48,56.56,69.09H32.73L25.87,48H63.43m3.44-2.5H22.43l8.49,26.12H58.38l8.49-26.12Z" style="fill:#fff"/><polygon points="36.43 66.59 41.56 66.59 44.35 62.35 45.68 66.59 47.98 66.59 49.39 64.53 50.62 66.59 52.55 66.59 52.46 60.41 48.91 56.57 49.58 59.06 47.76 61.56 46.8 59.93 47.79 56.57 46.61 54.08 42.49 50.35 43.64 54.56 41.44 58.3 42.3 60.31 39.33 62.71 39.81 59.64 37.51 56.67 37.99 60.88 36.07 65.48 36.43 66.59" style="fill:#fff"/><circle cx="26.65" cy="30.29" r="2.1" style="fill:#606060"/><circle cx="47.45" cy="24.69" r="1.58" style="fill:#606060"/><circle cx="44.45" cy="17.69" r="1.97" style="fill:#606060"/><line x1="56.35" y1="13.35" x2="52.65" y2="25.69" style="fill:none;stroke:#606060;stroke-linejoin:bevel;stroke-width:2.5px"/><polygon points="54.08 66.59 54.28 63.76 52.69 66.59 54.08 66.59" style="fill:#fff"/><polyline points="36.35 11.35 32.65 23.69 37.8 21.18 35.22 31.19" style="fill:none;stroke:#606060;stroke-linejoin:bevel;stroke-width:2.5px"/><polyline points="58.65 26.69 63.8 24.18 61.22 34.19" style="fill:none;stroke:#606060;stroke-linejoin:bevel;stroke-width:2.5px"/><line x1="34.92" y1="75.59" x2="54.38" y2="75.59" style="fill:none;stroke:#606060;stroke-miterlimit:10;stroke-width:2.5px"/></svg>