<svg id="Layer_1" data-name="Layer 1" xmlns="http://www.w3.org/2000/svg" viewBox="0 0 89.74 89.74"><g style="opacity:0.25"><circle cx="44.87" cy="44.87" r="40.79" style="fill:#fff"/></g><g style="opacity:0.75"><path d="M44.87,1.5A43.37,43.37,0,1,1,1.5,44.87,43.42,43.42,0,0,1,44.87,1.5m0-1.5A44.87,44.87,0,1,0,89.74,44.87,44.87,44.87,0,0,0,44.87,0Z" style="fill:#fff"/></g><polyline points="45.8 72.69 44.33 68.36 74.57 54.49 68.5 46.94 43.07 62.9 41.39 57.44 63.23 41.05 55.25 35.17 39.71 51.98 38.76 46.94 48.95 31.39 34.67 27.61 28.37 30.55 17.03 59.12 19.34 66.05 24.38 66.89 27.32 64.36 27.32 59.74 35.3 53.45" style="fill:none;stroke:#fff;stroke-miterlimit:10;stroke-width:2px"/><polygon points="18.08 59.01 22.4 59.74 22.4 61.9 19.08 63.01 18.08 59.01" style="fill:#fff"/><polygon points="27.08 31 24.59 22.16 24.17 19.21 28.79 23 28.79 16.3 35.51 26.77 27.08 31" style="fill:#fff"/><polygon points="32.99 38.95 30.89 41.05 27.53 41.48 28.73 38.95 30.26 38.36 32.99 38.95" style="fill:#fff"/><circle cx="14.86" cy="31.51" r="4.67" style="fill:#fff"/><path d="M62.21,27.57a3,3,0,0,0,0-6.08H47" style="fill:none;stroke:#606060;stroke-width:2.5px"/><line x1="48.52" y1="16.93" x2="57.64" y2="16.93" style="fill:none;stroke:#606060;stroke-linejoin:round;stroke-width:2.5px"/><line x1="28.52" y1="74.93" x2="37.64" y2="74.93" style="fill:none;stroke:#606060;stroke-linejoin:round;stroke-width:2.5px"/><circle cx="43.08" cy="17" r="1.5" style="fill:#606060"/></svg>