<svg id="Layer_1" data-name="Layer 1" xmlns="http://www.w3.org/2000/svg" viewBox="0 0 179.49 179.49"><g style="opacity:0.75"><path d="M89.74,3A86.75,86.75,0,1,1,3,89.74,86.84,86.84,0,0,1,89.74,3m0-3a89.75,89.75,0,1,0,89.75,89.74A89.74,89.74,0,0,0,89.74,0Z" style="fill:#fff"/></g><polygon points="108.66 91.72 101.97 101.08 75.17 101.08 68.49 91.72 47.73 91.72 47.73 105.11 114.69 118.46 141.47 91.72 108.66 91.72" style="fill:#fff"/><polygon points="117.36 97.08 141.47 97.08 147.49 91.72 114.02 91.72 117.36 97.08" style="fill:#fff"/><polygon points="88.57 48.87 88.57 29.45 69.16 29.45 88.57 48.87" style="fill:#fff"/><path d="M85.57,51.87V61L76.4,51.87h9.17m3-3H69.16L88.57,68.29V48.87Z" style="fill:#fff"/><polygon points="88.57 87.7 88.57 68.28 69.16 68.28 88.57 87.7" style="fill:#fff"/><polygon points="69.16 68.28 69.16 48.87 49.74 48.87 69.16 68.28" style="fill:#fff"/><polygon points="69.16 87.7 69.16 68.28 49.74 68.28 69.16 87.7" style="fill:#fff"/><polygon points="107.99 68.28 107.99 48.87 88.57 48.87 107.99 68.28" style="fill:#fff"/><polygon points="107.99 87.7 107.99 68.28 88.57 68.28 107.99 87.7" style="fill:#fff"/><circle cx="138.1" cy="57.12" r="7.47" style="fill:#fff"/><g style="opacity:0.25"><path d="M89.74,8.16a81.59,81.59,0,1,0,81.59,81.58A81.59,81.59,0,0,0,89.74,8.16ZM32.66,108.46l97.55,19.46V133L32.66,113.56ZM70.45,143.1l-37.79-7.54v-5.1l38.76,7.73ZM130.21,155l-37.43-7.47,1-4.9,36.45,7.27Zm10-8.91-98-19.55v-5.1l98,19.55Z" style="fill:#fff"/></g></svg>