<svg id="Layer_1" data-name="Layer 1" xmlns="http://www.w3.org/2000/svg" viewBox="0 0 89.74 89.74"><g style="opacity:0.25"><circle cx="44.87" cy="44.87" r="40.79" style="fill:#fff"/></g><g style="opacity:0.75"><path d="M44.87,1.5A43.37,43.37,0,1,1,1.5,44.87,43.42,43.42,0,0,1,44.87,1.5m0-1.5A44.87,44.87,0,1,0,89.74,44.87,44.87,44.87,0,0,0,44.87,0Z" style="fill:#fff"/></g><path d="M34,66l-4.1,2.81v4.21h8s.56-4.77,7-4.77,7,4.77,7,4.77h8V68.84L55.76,66,58,60.82l16.49-8.31V51.17H58.37V49.48h-27v1.69H15.3v1.34l16.5,8.31Z" style="fill:none;stroke:#fff;stroke-miterlimit:10;stroke-width:2px"/><polygon points="33.77 45.89 31.88 39.86 37.59 44.27 37.59 39.11 40.78 45.35 42.25 43.54 42.66 45.89 45.21 45.89 43.77 37.67 41.26 40.77 35.08 28.7 35.08 39.16 27.1 33 31.13 45.89 33.77 45.89" style="fill:#606060"/><polygon points="58.38 45.89 60.73 36.48 53.45 41.98 50.49 39.21 47.48 45.89 50.18 45.89 51.32 43.36 53.28 45.19 56.66 42.64 55.84 45.89 58.38 45.89" style="fill:#606060"/><circle cx="19.02" cy="34.82" r="4.67" style="fill:#fff"/><path d="M78.35,45.09,50.68,26.92l-2.31,3.52.18.11a.22.22,0,0,1,.06.31l-1,1.5a.22.22,0,0,1-.31.06l-4.73-3.11a.21.21,0,0,1-.1-.14.25.25,0,0,1,0-.17h0l1-1.49a.26.26,0,0,1,.13-.1.25.25,0,0,1,.17,0l.23.15,5.32-8.1,7.08-5,1.69,1.11-5.19,7.89L80.62,41.65ZM42.52,29" style="fill:#fff"/></svg>