<svg id="Layer_1" data-name="Layer 1" xmlns="http://www.w3.org/2000/svg" viewBox="0 0 111.77 106.81"><circle cx="56.07" cy="28.64" r="6.48" style="fill:#fff"/><polygon points="60.65 33.22 56.41 37.62 55.74 37.62 51.49 33.22 60.65 33.22" style="fill:#fff"/><rect x="55.35" y="35.62" width="1.45" height="11.72" style="fill:#fff"/><rect x="47.04" y="50.73" width="6.16" height="6.16" transform="translate(47.51 127.29) rotate(-135)" style="fill:#fff"/><circle cx="31.18" cy="53.67" r="6.48" style="fill:#fff"/><polygon points="35.76 49.08 40.16 53.33 40.16 54 35.76 58.25 35.76 49.08" style="fill:#fff"/><rect x="38.16" y="52.94" width="11.72" height="1.45" style="fill:#fff"/><circle cx="56.07" cy="28.64" r="6.48" style="fill:#fff"/><polygon points="60.65 33.22 56.41 37.62 55.74 37.62 51.49 33.22 60.65 33.22" style="fill:#fff"/><rect x="55.35" y="35.62" width="1.45" height="11.72" style="fill:#fff"/><rect x="59.09" y="50.45" width="6.16" height="6.16" transform="translate(56.06 -28.28) rotate(45)" style="fill:#fff"/><circle cx="81.1" cy="53.67" r="6.48" style="fill:#fff"/><polygon points="76.52 58.25 72.12 54 72.12 53.33 76.52 49.09 76.52 58.25" style="fill:#fff"/><rect x="62.4" y="52.94" width="11.72" height="1.45" style="fill:#fff"/><circle cx="56.21" cy="78.7" r="6.48" style="fill:#fff"/><polygon points="51.63 74.12 55.88 69.71 56.54 69.71 60.79 74.12 51.63 74.12" style="fill:#fff"/><rect x="55.48" y="59.99" width="1.45" height="11.72" style="fill:#fff"/><circle cx="56.21" cy="78.7" r="6.48" style="fill:#fff"/><polygon points="51.63 74.12 55.88 69.71 56.54 69.71 60.79 74.12 51.63 74.12" style="fill:#fff"/><rect x="55.48" y="59.99" width="1.45" height="11.72" style="fill:#fff"/><rect x="52.86" y="44.5" width="6.16" height="6.16" transform="translate(-17.26 53.49) rotate(-45)" style="fill:#fff"/><rect x="53.11" y="56.52" width="6.48" height="6.48" transform="translate(138.45 62.17) rotate(135)" style="fill:#fff"/><g style="opacity:0.25"><path d="M55.77,12.94a40.8,40.8,0,1,0,40.79,40.8A40.8,40.8,0,0,0,55.77,12.94Zm-4,26.73,0,.06,0,.05-3,5.16-3-5.16,0-.05,0-.06,3-5.16ZM42.22,58.12l.05,0,0,0,5.16,3-5.16,3,0,0-.05,0-5.16-3ZM36.78,46.51l5.16-3,.05,0,.06,0,5.16,3-5.16,3-.06,0-.05,0Zm3.08-12.78,3-5.15,3,5.15,0,.06,0,.05-3,5.16-3-5.16,0-.05ZM36,37.6l.06,0,0,0,5.16,3-5.16,3,0,0-.06,0-5.16-3ZM36.33,70l0,0-5.16-3,5.16-3,0,0,.05,0,5.16,3-5.16,3Zm9.77,3.83-3,5.16-3-5.16,0-.05,0,0,3-5.16,3,5.16,0,0ZM52,67.93l-3,5.16-3-5.16,0-.05,0,0,3-5.16,3,5.16,0,0ZM76,37.29l0,0,5.16,3-5.16,3,0,0,0,0-5.16-3,5.16-3ZM70.23,57.84l.06,0,0,0,5.16,3-5.16,3,0,0-.06,0-5.16-3ZM64.8,46.24l5.16-3,.05,0,0,0,5.16,3-5.16,3,0,0-.05,0Zm1.38-12.78,3-5.16,3,5.16,0,0,0,.05-3,5.16-3-5.16,0-.05Zm-6,6,0-.05,3-5.16,3,5.16,0,.05,0,0-3,5.16-3-5.16Zm.3,28.21,0,0,0,0,3-5.16,3,5.16,0,0,0,0-3,5.16Zm11.9,5.94-3,5.16-3-5.16,0,0,0,0,3-5.16,3,5.16,0,0Zm3.86-3.86,0,0-.06,0-5.16-3,5.16-3,.06,0,0,0,5.16,3Z" style="fill:#fff"/></g><polygon points="105.72 44.2 111.77 49.43 106.54 55.48 105.72 44.2" style="fill:#fff"/><polygon points="88.91 92.06 87.34 99.91 79.5 98.34 88.91 92.06" style="fill:#fff"/><polygon points="38.81 101.19 31.24 103.79 28.64 96.22 38.81 101.19" style="fill:#fff"/><polygon points="6.08 62.53 0 57.33 5.2 51.25 6.08 62.53" style="fill:#fff"/><polygon points="22.99 14.67 24.53 6.82 32.38 8.35 22.99 14.67" style="fill:#fff"/><polygon points="82.89 10.46 80.28 2.89 72.72 5.49 82.89 10.46" style="fill:#fff"/><g style="opacity:0.75"><path d="M45.41,2.69,94.53,19l10.41,50.71L66.22,104.12,17.1,87.77,6.7,37.06,45.41,2.69M45.07,1l-40,35.51L15.8,88.92l50.77,16.9,40-35.52L95.83,17.89,45.07,1Z" style="fill:#fff"/></g><g style="opacity:0.75"><path d="M58.89,1.73l43.22,28.5L99,81.91,52.74,105.09,9.52,76.58,12.6,24.9,58.89,1.73M59,0,11.15,24,8,77.36l44.67,29.45,47.84-24,3.18-53.4L59,0Z" style="fill:#fff"/></g></svg>