<svg id="Layer_1" data-name="Layer 1" xmlns="http://www.w3.org/2000/svg" viewBox="0 0 179.49 179.49"><g style="opacity:0.75"><path d="M89.74,3A86.75,86.75,0,1,1,3,89.74,86.84,86.84,0,0,1,89.74,3m0-3a89.75,89.75,0,1,0,89.75,89.74A89.74,89.74,0,0,0,89.74,0Z" style="fill:#fff"/></g><polygon points="60.44 109.16 43.6 131.65 60.46 119.03 60.46 109.18 60.44 109.16" style="fill:#fff"/><polygon points="119.53 109.16 136.37 131.65 119.51 119.03 119.51 109.18 119.53 109.16" style="fill:#fff"/><polyline points="109.76 138.99 69.76 123.43 109.76 107.88 69.76 92.32" style="fill:none;stroke:#fff;stroke-linejoin:bevel;stroke-width:3.47826075553894px"/><polyline points="69.76 138.99 109.76 123.43 69.76 107.88 109.76 92.32" style="fill:none;stroke:#fff;stroke-linejoin:bevel;stroke-width:3.47826075553894px"/><path d="M47.78,32.88,37.6,43.06,70.69,73.61,78.33,66ZM60,58.83,44.74,43.56,48.28,40,63.55,55.3Z" style="fill:#fff"/><path d="M132.19,32.88,101.64,66l7.64,7.64,33.09-30.55ZM116.42,55.3,131.69,40l3.54,3.54L120,58.83Z" style="fill:#fff"/><g style="opacity:0.25"><path d="M89.74,8.16a81.59,81.59,0,1,0,81.59,81.58A81.59,81.59,0,0,0,89.74,8.16ZM60,58.83,44.74,43.56,48.28,40,63.55,55.3Zm53,93.83H101.26v5h-22v-5H67v-8h46Zm0-66H67v-8H79.26v-5h22v5H113Zm7-27.83-3.54-3.53L131.69,40l3.54,3.54Z" style="fill:#fff"/></g></svg>